<?xml version="1.0" encoding="UTF-8" standalone="no"?>
<!DOCTYPE svg PUBLIC "-//W3C//DTD SVG 1.1//EN"
 "http://www.w3.org/Graphics/SVG/1.1/DTD/svg11.dtd">
<!-- Generated by graphviz version 2.43.0 (0)
 -->
<!-- Title: %3 Pages: 1 -->
<svg width="1871pt" height="1074pt"
 viewBox="0.00 0.00 1871.04 1074.00" xmlns="http://www.w3.org/2000/svg" xmlns:xlink="http://www.w3.org/1999/xlink">
<g id="graph0" class="graph" transform="scale(1 1) rotate(0) translate(4 1070)">
<title>%3</title>
<polygon fill="white" stroke="transparent" points="-4,4 -4,-1070 1867.04,-1070 1867.04,4 -4,4"/>
<g id="clust1" class="cluster">
<title>cluster&#45;nid&#45;02</title>
<polygon fill="none" stroke="#cccccc" points="37.97,-103 37.97,-169 508.26,-169 508.26,-103 37.97,-103"/>
</g>
<g id="clust2" class="cluster">
<title>cluster&#45;nid&#45;03</title>
<polygon fill="none" stroke="#cccccc" points="37.97,-22 37.97,-88 508.26,-88 508.26,-22 37.97,-22"/>
</g>
<g id="clust5" class="cluster">
<title>cluster&#45;nid&#45;06</title>
<polygon fill="none" stroke="#cccccc" points="8,-275 8,-341 157.15,-341 157.15,-275 8,-275"/>
</g>
<g id="clust6" class="cluster">
<title>cluster&#45;nid&#45;07</title>
<polygon fill="none" stroke="#cccccc" points="1191.35,-981 1191.35,-1047 1565.83,-1047 1565.83,-981 1191.35,-981"/>
</g>
<g id="clust7" class="cluster">
<title>cluster&#45;nid&#45;08</title>
<polygon fill="none" stroke="#cccccc" points="1486.23,-740 1486.23,-806 1855.04,-806 1855.04,-740 1486.23,-740"/>
</g>
<g id="clust8" class="cluster">
<title>cluster&#45;nid&#45;09</title>
<polygon fill="none" stroke="#cccccc" points="1486.23,-393 1486.23,-459 1855.04,-459 1855.04,-393 1486.23,-393"/>
</g>
<g id="clust18" class="cluster">
<title>cluster&#45;nid&#45;12&#45;out</title>
<polygon fill="none" stroke="#cccccc" points="393.5,-888 393.5,-968 553.03,-968 553.03,-888 393.5,-888"/>
</g>
<g id="clust20" class="cluster">
<title>cluster&#45;nid&#45;13&#45;out</title>
<polygon fill="none" stroke="#cccccc" points="378.53,-976 378.53,-1056 567.99,-1056 567.99,-976 378.53,-976"/>
</g>
<g id="clust21" class="cluster">
<title>cluster&#45;nid&#45;14&#45;in</title>
<polygon fill="none" stroke="#cccccc" points="791.7,-184 791.7,-264 973.77,-264 973.77,-184 791.7,-184"/>
</g>
<g id="clust27" class="cluster">
<title>cluster&#45;nid&#45;18&#45;out</title>
<polygon fill="none" stroke="#cccccc" points="379.91,-604 379.91,-684 566.62,-684 566.62,-604 379.91,-604"/>
</g>
<g id="clust29" class="cluster">
<title>cluster&#45;nid&#45;19&#45;out</title>
<polygon fill="none" stroke="#cccccc" points="379.91,-493 379.91,-573 566.62,-573 566.62,-493 379.91,-493"/>
</g>
<g id="clust31" class="cluster">
<title>cluster&#45;nid&#45;1a&#45;out</title>
<polygon fill="none" stroke="#cccccc" points="379.91,-359 379.91,-439 566.62,-439 566.62,-359 379.91,-359"/>
</g>
<g id="clust32" class="cluster">
<title>cluster&#45;nid&#45;1b&#45;in</title>
<polygon fill="none" stroke="#cccccc" points="789.38,-8 789.38,-88 1261.35,-88 1261.35,-8 789.38,-8"/>
</g>
<g id="clust33" class="cluster">
<title>cluster&#45;nid&#45;1b&#45;out</title>
<polygon fill="none" stroke="#cccccc" points="47.57,-797 47.57,-877 566.62,-877 566.62,-797 47.57,-797"/>
</g>
<g id="clust36" class="cluster">
<title>cluster&#45;nid&#45;1d&#45;out</title>
<polygon fill="none" stroke="#cccccc" points="357.15,-703 357.15,-783 589.38,-783 589.38,-703 357.15,-703"/>
</g>
<g id="clust37" class="cluster">
<title>cluster&#45;nid&#45;1e&#45;in</title>
<polygon fill="none" stroke="#cccccc" points="379.91,-268 379.91,-348 566.62,-348 566.62,-268 379.91,-268"/>
</g>
<g id="clust41" class="cluster">
<title>cluster&#45;nid&#45;21&#45;in</title>
<polygon fill="none" stroke="#cccccc" points="791.75,-96 791.75,-176 973.72,-176 973.72,-96 791.75,-96"/>
</g>
<g id="clust43" class="cluster">
<title>cluster&#45;nid&#45;22</title>
<polygon fill="none" stroke="#cccccc" points="794.1,-272 794.1,-580 1276.62,-580 1276.62,-272 794.1,-272"/>
</g>
<g id="clust44" class="cluster">
<title>cluster&#45;nid&#45;23</title>
<polygon fill="none" stroke="#cccccc" points="794.1,-588 794.1,-958 1276.62,-958 1276.62,-588 794.1,-588"/>
</g>
<g id="clust45" class="cluster">
<title>cluster&#45;nid&#45;24</title>
<polygon fill="none" stroke="#cccccc" points="821.06,-970 821.06,-1058 944.4,-1058 944.4,-970 821.06,-970"/>
</g>
<!-- nid&#45;02 -->
<g id="node1" class="node">
<title>nid&#45;02</title>
<ellipse fill="none" stroke="blue" cx="82.57" cy="-136" rx="36.71" ry="25.41"/>
<text text-anchor="middle" x="82.57" y="-138.8" font-family="Times,serif" font-size="14.00">0x02</text>
<text text-anchor="middle" x="82.57" y="-124.8" font-family="Times,serif" font-size="14.00">Stereo</text>
</g>
<!-- nid&#45;02&#45;ampout -->
<g id="node2" class="node">
<title>nid&#45;02&#45;ampout</title>
<polygon fill="none" stroke="#0000ff" points="500.26,-136 459.76,-154 459.76,-118 500.26,-136"/>
</g>
<!-- nid&#45;02&#45;&gt;nid&#45;02&#45;ampout -->
<g id="edge1" class="edge">
<title>nid&#45;02&#45;&gt;nid&#45;02&#45;ampout</title>
<path fill="none" stroke="#0000ff" d="M119.44,-136C200.44,-136 395.08,-136 454.64,-136"/>
<polygon fill="#0000ff" stroke="#0000ff" points="454.66,-137.75 459.66,-136 454.66,-134.25 454.66,-137.75"/>
</g>
<!-- nid&#45;14&#45;in -->
<g id="node17" class="node">
<title>nid&#45;14&#45;in</title>
<polygon fill="none" stroke="green" points="965.8,-256 799.66,-256 799.66,-192 965.8,-192 965.8,-256"/>
<text text-anchor="middle" x="882.73" y="-240.8" font-family="Times,serif" font-size="14.00">0x14</text>
<text text-anchor="middle" x="882.73" y="-226.8" font-family="Times,serif" font-size="14.00">[Fixed] Speaker at Int N/A</text>
<text text-anchor="middle" x="882.73" y="-212.8" font-family="Times,serif" font-size="14.00">Stereo</text>
<text text-anchor="middle" x="882.73" y="-198.8" font-family="Times,serif" font-size="14.00">OUT EAPD Detect</text>
</g>
<!-- nid&#45;02&#45;ampout&#45;&gt;nid&#45;14&#45;in -->
<g id="edge9" class="edge">
<title>nid&#45;02&#45;ampout&#45;&gt;nid&#45;14&#45;in</title>
<path fill="none" stroke="#333333" d="M491.77,-139.78C542.28,-150.69 690.95,-182.8 789.43,-204.07"/>
<polygon fill="#333333" stroke="#333333" points="788.88,-207.53 799.4,-206.22 790.36,-200.69 788.88,-207.53"/>
</g>
<!-- nid&#45;1b&#45;in -->
<g id="node21" class="node">
<title>nid&#45;1b&#45;in</title>
<polygon fill="none" stroke="green" points="967.94,-80 797.52,-80 797.52,-16 967.94,-16 967.94,-80"/>
<text text-anchor="middle" x="882.73" y="-64.8" font-family="Times,serif" font-size="14.00">0x1b</text>
<text text-anchor="middle" x="882.73" y="-50.8" font-family="Times,serif" font-size="14.00">[None] Speaker at Ext Rear</text>
<text text-anchor="middle" x="882.73" y="-36.8" font-family="Times,serif" font-size="14.00">Stereo</text>
<text text-anchor="middle" x="882.73" y="-22.8" font-family="Times,serif" font-size="14.00">IN OUT EAPD Detect</text>
</g>
<!-- nid&#45;02&#45;ampout&#45;&gt;nid&#45;1b&#45;in -->
<g id="edge12" class="edge">
<title>nid&#45;02&#45;ampout&#45;&gt;nid&#45;1b&#45;in</title>
<path fill="none" stroke="gray" stroke-dasharray="5,2" d="M491.77,-132.22C541.92,-121.39 688.79,-89.67 787.27,-68.4"/>
<polygon fill="gray" stroke="gray" points="788.21,-71.78 797.24,-66.25 786.73,-64.94 788.21,-71.78"/>
</g>
<!-- nid&#45;21&#45;in -->
<g id="node27" class="node">
<title>nid&#45;21&#45;in</title>
<polygon fill="none" stroke="green" points="965.7,-168 799.77,-168 799.77,-104 965.7,-104 965.7,-168"/>
<text text-anchor="middle" x="882.73" y="-152.8" font-family="Times,serif" font-size="14.00">0x21</text>
<text text-anchor="middle" x="882.73" y="-138.8" font-family="Times,serif" font-size="14.00">[Jack] HP Out at Ext Front</text>
<text text-anchor="middle" x="882.73" y="-124.8" font-family="Times,serif" font-size="14.00">Stereo</text>
<text text-anchor="middle" x="882.73" y="-110.8" font-family="Times,serif" font-size="14.00">OUT HP EAPD Detect</text>
</g>
<!-- nid&#45;02&#45;ampout&#45;&gt;nid&#45;21&#45;in -->
<g id="edge15" class="edge">
<title>nid&#45;02&#45;ampout&#45;&gt;nid&#45;21&#45;in</title>
<path fill="none" stroke="gray" stroke-dasharray="5,2" d="M500.37,-136C557.57,-136 696.27,-136 789.67,-136"/>
<polygon fill="gray" stroke="gray" points="789.69,-139.5 799.69,-136 789.69,-132.5 789.69,-139.5"/>
</g>
<!-- nid&#45;03 -->
<g id="node3" class="node">
<title>nid&#45;03</title>
<ellipse fill="none" stroke="blue" cx="82.57" cy="-55" rx="36.71" ry="25.41"/>
<text text-anchor="middle" x="82.57" y="-57.8" font-family="Times,serif" font-size="14.00">0x03</text>
<text text-anchor="middle" x="82.57" y="-43.8" font-family="Times,serif" font-size="14.00">Stereo</text>
</g>
<!-- nid&#45;03&#45;ampout -->
<g id="node4" class="node">
<title>nid&#45;03&#45;ampout</title>
<polygon fill="none" stroke="#0000ff" points="500.26,-55 459.76,-73 459.76,-37 500.26,-55"/>
</g>
<!-- nid&#45;03&#45;&gt;nid&#45;03&#45;ampout -->
<g id="edge2" class="edge">
<title>nid&#45;03&#45;&gt;nid&#45;03&#45;ampout</title>
<path fill="none" stroke="#0000ff" d="M119.44,-55C200.44,-55 395.08,-55 454.64,-55"/>
<polygon fill="#0000ff" stroke="#0000ff" points="454.66,-56.75 459.66,-55 454.66,-53.25 454.66,-56.75"/>
</g>
<!-- nid&#45;03&#45;ampout&#45;&gt;nid&#45;1b&#45;in -->
<g id="edge13" class="edge">
<title>nid&#45;03&#45;ampout&#45;&gt;nid&#45;1b&#45;in</title>
<path fill="none" stroke="gray" stroke-dasharray="5,2" d="M499.44,-54.57C555.61,-53.6 693.57,-51.23 787.44,-49.62"/>
<polygon fill="gray" stroke="gray" points="787.58,-53.12 797.52,-49.45 787.46,-46.12 787.58,-53.12"/>
</g>
<!-- nid&#45;03&#45;ampout&#45;&gt;nid&#45;21&#45;in -->
<g id="edge16" class="edge">
<title>nid&#45;03&#45;ampout&#45;&gt;nid&#45;21&#45;in</title>
<path fill="none" stroke="gray" stroke-dasharray="5,2" d="M492.3,-58.58C543.37,-68.74 691.65,-98.21 789.79,-117.72"/>
<polygon fill="gray" stroke="gray" points="789.23,-121.18 799.72,-119.7 790.6,-114.31 789.23,-121.18"/>
</g>
<!-- nid&#45;06 -->
<g id="node5" class="node">
<title>nid&#45;06</title>
<ellipse fill="none" stroke="blue" cx="82.57" cy="-308" rx="66.65" ry="25.41"/>
<text text-anchor="middle" x="82.57" y="-310.8" font-family="Times,serif" font-size="14.00">0x06</text>
<text text-anchor="middle" x="82.57" y="-296.8" font-family="Times,serif" font-size="14.00">Stereo Digital</text>
</g>
<!-- nid&#45;1e&#45;in -->
<g id="node26" class="node">
<title>nid&#45;1e&#45;in</title>
<polygon fill="none" stroke="green" points="558.47,-340 388.05,-340 388.05,-276 558.47,-276 558.47,-340"/>
<text text-anchor="middle" x="473.26" y="-324.8" font-family="Times,serif" font-size="14.00">0x1e</text>
<text text-anchor="middle" x="473.26" y="-310.8" font-family="Times,serif" font-size="14.00">[None] Speaker at Ext Rear</text>
<text text-anchor="middle" x="473.26" y="-296.8" font-family="Times,serif" font-size="14.00">Stereo Digital</text>
<text text-anchor="middle" x="473.26" y="-282.8" font-family="Times,serif" font-size="14.00">OUT Detect</text>
</g>
<!-- nid&#45;06&#45;&gt;nid&#45;1e&#45;in -->
<g id="edge14" class="edge">
<title>nid&#45;06&#45;&gt;nid&#45;1e&#45;in</title>
<path fill="none" stroke="#333333" d="M149.51,-308C212.16,-308 307.05,-308 377.74,-308"/>
<polygon fill="#333333" stroke="#333333" points="377.99,-311.5 387.99,-308 377.99,-304.5 377.99,-311.5"/>
</g>
<!-- nid&#45;07 -->
<g id="node6" class="node">
<title>nid&#45;07</title>
<ellipse fill="none" stroke="red" cx="1521.23" cy="-1014" rx="36.71" ry="25.41"/>
<text text-anchor="middle" x="1521.23" y="-1016.8" font-family="Times,serif" font-size="14.00">0x07</text>
<text text-anchor="middle" x="1521.23" y="-1002.8" font-family="Times,serif" font-size="14.00">Stereo</text>
</g>
<!-- nid&#45;07&#45;ampin -->
<g id="node7" class="node">
<title>nid&#45;07&#45;ampin</title>
<polygon fill="none" stroke="#c8c8c8" points="1253.35,-1014 1212.85,-1032 1212.85,-996 1253.35,-1014"/>
</g>
<!-- nid&#45;07&#45;ampin&#45;&gt;nid&#45;07 -->
<g id="edge3" class="edge">
<title>nid&#45;07&#45;ampin&#45;&gt;nid&#45;07</title>
<path fill="none" stroke="#c8c8c8" d="M1253.6,-1014C1304.81,-1014 1418.37,-1014 1479.46,-1014"/>
<polygon fill="#c8c8c8" stroke="#c8c8c8" points="1479.48,-1015.75 1484.48,-1014 1479.48,-1012.25 1479.48,-1015.75"/>
</g>
<!-- nid&#45;24 -->
<g id="node8" class="node">
<title>nid&#45;24</title>
<polygon fill="none" stroke="black" points="936.57,-1050 850.93,-1050 828.9,-978 914.54,-978 936.57,-1050"/>
<text text-anchor="middle" x="882.73" y="-1016.8" font-family="Times,serif" font-size="14.00">0x24</text>
<text text-anchor="middle" x="882.73" y="-1002.8" font-family="Times,serif" font-size="14.00">Stereo</text>
</g>
<!-- nid&#45;24&#45;&gt;nid&#45;07&#45;ampin -->
<g id="edge4" class="edge">
<title>nid&#45;24&#45;&gt;nid&#45;07&#45;ampin</title>
<path fill="none" stroke="#333333" d="M925.62,-1014C998.45,-1014 1146.03,-1014 1202.59,-1014"/>
<polygon fill="#333333" stroke="#333333" points="1202.64,-1017.5 1212.64,-1014 1202.64,-1010.5 1202.64,-1017.5"/>
</g>
<!-- nid&#45;08 -->
<g id="node9" class="node">
<title>nid&#45;08</title>
<ellipse fill="none" stroke="red" cx="1810.43" cy="-773" rx="36.71" ry="25.41"/>
<text text-anchor="middle" x="1810.43" y="-775.8" font-family="Times,serif" font-size="14.00">0x08</text>
<text text-anchor="middle" x="1810.43" y="-761.8" font-family="Times,serif" font-size="14.00">Stereo</text>
</g>
<!-- nid&#45;08&#45;ampin -->
<g id="node10" class="node">
<title>nid&#45;08&#45;ampin</title>
<polygon fill="none" stroke="#c8c8c8" points="1548.23,-773 1507.73,-791 1507.73,-755 1548.23,-773"/>
</g>
<!-- nid&#45;08&#45;ampin&#45;&gt;nid&#45;08 -->
<g id="edge5" class="edge">
<title>nid&#45;08&#45;ampin&#45;&gt;nid&#45;08</title>
<path fill="none" stroke="#c8c8c8" d="M1548.47,-773C1598.61,-773 1708.34,-773 1768.31,-773"/>
<polygon fill="#c8c8c8" stroke="#c8c8c8" points="1768.6,-774.75 1773.6,-773 1768.6,-771.25 1768.6,-774.75"/>
</g>
<!-- nid&#45;23 -->
<g id="node11" class="node">
<title>nid&#45;23</title>
<polygon fill="none" stroke="black" points="1268.39,-773 1247.37,-802.29 1205.34,-802.29 1184.32,-773 1205.34,-743.71 1247.37,-743.71 1268.39,-773"/>
<text text-anchor="middle" x="1226.35" y="-775.8" font-family="Times,serif" font-size="14.00">0x23</text>
<text text-anchor="middle" x="1226.35" y="-761.8" font-family="Times,serif" font-size="14.00">Stereo</text>
</g>
<!-- nid&#45;23&#45;&gt;nid&#45;08&#45;ampin -->
<g id="edge6" class="edge">
<title>nid&#45;23&#45;&gt;nid&#45;08&#45;ampin</title>
<path fill="none" stroke="#333333" d="M1268.69,-773C1331.3,-773 1448.08,-773 1497.36,-773"/>
<polygon fill="#333333" stroke="#333333" points="1497.59,-776.5 1507.59,-773 1497.59,-769.5 1497.59,-776.5"/>
</g>
<!-- nid&#45;09 -->
<g id="node12" class="node">
<title>nid&#45;09</title>
<ellipse fill="none" stroke="red" cx="1810.43" cy="-426" rx="36.71" ry="25.41"/>
<text text-anchor="middle" x="1810.43" y="-428.8" font-family="Times,serif" font-size="14.00">0x09</text>
<text text-anchor="middle" x="1810.43" y="-414.8" font-family="Times,serif" font-size="14.00">Stereo</text>
</g>
<!-- nid&#45;09&#45;ampin -->
<g id="node13" class="node">
<title>nid&#45;09&#45;ampin</title>
<polygon fill="none" stroke="#c8c8c8" points="1548.23,-426 1507.73,-444 1507.73,-408 1548.23,-426"/>
</g>
<!-- nid&#45;09&#45;ampin&#45;&gt;nid&#45;09 -->
<g id="edge7" class="edge">
<title>nid&#45;09&#45;ampin&#45;&gt;nid&#45;09</title>
<path fill="none" stroke="#c8c8c8" d="M1548.47,-426C1598.61,-426 1708.34,-426 1768.31,-426"/>
<polygon fill="#c8c8c8" stroke="#c8c8c8" points="1768.6,-427.75 1773.6,-426 1768.6,-424.25 1768.6,-427.75"/>
</g>
<!-- nid&#45;22 -->
<g id="node14" class="node">
<title>nid&#45;22</title>
<polygon fill="none" stroke="black" points="1268.39,-426 1247.37,-455.29 1205.34,-455.29 1184.32,-426 1205.34,-396.71 1247.37,-396.71 1268.39,-426"/>
<text text-anchor="middle" x="1226.35" y="-428.8" font-family="Times,serif" font-size="14.00">0x22</text>
<text text-anchor="middle" x="1226.35" y="-414.8" font-family="Times,serif" font-size="14.00">Stereo</text>
</g>
<!-- nid&#45;22&#45;&gt;nid&#45;09&#45;ampin -->
<g id="edge8" class="edge">
<title>nid&#45;22&#45;&gt;nid&#45;09&#45;ampin</title>
<path fill="none" stroke="#333333" d="M1268.69,-426C1331.3,-426 1448.08,-426 1497.36,-426"/>
<polygon fill="#333333" stroke="#333333" points="1497.59,-429.5 1507.59,-426 1497.59,-422.5 1497.59,-429.5"/>
</g>
<!-- nid&#45;12&#45;out -->
<g id="node15" class="node">
<title>nid&#45;12&#45;out</title>
<polygon fill="none" stroke="green" points="544.79,-960 401.73,-960 401.73,-896 544.79,-896 544.79,-960"/>
<text text-anchor="middle" x="473.26" y="-944.8" font-family="Times,serif" font-size="14.00">0x12</text>
<text text-anchor="middle" x="473.26" y="-930.8" font-family="Times,serif" font-size="14.00">[Fixed] Mic at Int N/A</text>
<text text-anchor="middle" x="473.26" y="-916.8" font-family="Times,serif" font-size="14.00">Stereo</text>
<text text-anchor="middle" x="473.26" y="-902.8" font-family="Times,serif" font-size="14.00">IN</text>
</g>
<!-- nid&#45;12&#45;out&#45;&gt;nid&#45;24 -->
<g id="edge39" class="edge">
<title>nid&#45;12&#45;out&#45;&gt;nid&#45;24</title>
<path fill="none" stroke="gray" stroke-dasharray="5,2" d="M545.24,-942.98C625.38,-959.89 754.06,-987.05 826.87,-1002.42"/>
<polygon fill="gray" stroke="gray" points="826.26,-1005.87 836.77,-1004.51 827.7,-999.02 826.26,-1005.87"/>
</g>
<!-- nid&#45;23&#45;ampin&#45;18 -->
<g id="node38" class="node">
<title>nid&#45;23&#45;ampin&#45;18</title>
<polygon fill="none" stroke="#c8c8c8" points="963.5,-928 842.35,-950 842.35,-906 963.5,-928"/>
<text text-anchor="middle" x="882.73" y="-923.8" font-family="Times,serif" font-size="14.00">5 (0x12)</text>
</g>
<!-- nid&#45;12&#45;out&#45;&gt;nid&#45;23&#45;ampin&#45;18 -->
<g id="edge38" class="edge">
<title>nid&#45;12&#45;out&#45;&gt;nid&#45;23&#45;ampin&#45;18</title>
<path fill="none" stroke="#333333" d="M545.24,-928C627.28,-928 760.19,-928 831.96,-928"/>
<polygon fill="#333333" stroke="#333333" points="832.09,-931.5 842.09,-928 832.09,-924.5 832.09,-931.5"/>
</g>
<!-- nid&#45;13&#45;out -->
<g id="node16" class="node">
<title>nid&#45;13&#45;out</title>
<polygon fill="none" stroke="green" points="560.22,-1048 386.3,-1048 386.3,-984 560.22,-984 560.22,-1048"/>
<text text-anchor="middle" x="473.26" y="-1032.8" font-family="Times,serif" font-size="14.00">0x13</text>
<text text-anchor="middle" x="473.26" y="-1018.8" font-family="Times,serif" font-size="14.00">[None] Line Out at Ext N/A</text>
<text text-anchor="middle" x="473.26" y="-1004.8" font-family="Times,serif" font-size="14.00">Stereo</text>
<text text-anchor="middle" x="473.26" y="-990.8" font-family="Times,serif" font-size="14.00">IN</text>
</g>
<!-- nid&#45;13&#45;out&#45;&gt;nid&#45;24 -->
<g id="edge40" class="edge">
<title>nid&#45;13&#45;out&#45;&gt;nid&#45;24</title>
<path fill="none" stroke="gray" stroke-dasharray="5,2" d="M560.18,-1015.58C641.8,-1015.18 761.85,-1014.59 829.81,-1014.25"/>
<polygon fill="gray" stroke="gray" points="829.87,-1017.75 839.86,-1014.21 829.84,-1010.75 829.87,-1017.75"/>
</g>
<!-- nid&#45;18&#45;out -->
<g id="node18" class="node">
<title>nid&#45;18&#45;out</title>
<polygon fill="none" stroke="green" points="558.47,-676 388.05,-676 388.05,-612 558.47,-612 558.47,-676"/>
<text text-anchor="middle" x="473.26" y="-660.8" font-family="Times,serif" font-size="14.00">0x18</text>
<text text-anchor="middle" x="473.26" y="-646.8" font-family="Times,serif" font-size="14.00">[None] Speaker at Ext Rear</text>
<text text-anchor="middle" x="473.26" y="-632.8" font-family="Times,serif" font-size="14.00">Stereo</text>
<text text-anchor="middle" x="473.26" y="-618.8" font-family="Times,serif" font-size="14.00">IN Detect</text>
</g>
<!-- nid&#45;22&#45;ampin&#45;24 -->
<g id="node28" class="node">
<title>nid&#45;22&#45;ampin&#45;24</title>
<polygon fill="none" stroke="#c8c8c8" points="963.5,-426 842.35,-448 842.35,-404 963.5,-426"/>
<text text-anchor="middle" x="882.73" y="-421.8" font-family="Times,serif" font-size="14.00">0 (0x18)</text>
</g>
<!-- nid&#45;18&#45;out&#45;&gt;nid&#45;22&#45;ampin&#45;24 -->
<g id="edge22" class="edge">
<title>nid&#45;18&#45;out&#45;&gt;nid&#45;22&#45;ampin&#45;24</title>
<path fill="none" stroke="#333333" d="M529.68,-611.94C548.64,-600.92 569.97,-588.47 589.38,-577 678.62,-524.26 695.25,-500.41 789.38,-457 802.98,-450.73 818.22,-445.08 832.34,-440.39"/>
<polygon fill="#333333" stroke="#333333" points="833.47,-443.7 841.91,-437.29 831.32,-437.04 833.47,-443.7"/>
</g>
<!-- nid&#45;23&#45;ampin&#45;24 -->
<g id="node33" class="node">
<title>nid&#45;23&#45;ampin&#45;24</title>
<polygon fill="none" stroke="#c8c8c8" points="963.5,-742 842.35,-764 842.35,-720 963.5,-742"/>
<text text-anchor="middle" x="882.73" y="-737.8" font-family="Times,serif" font-size="14.00">0 (0x18)</text>
</g>
<!-- nid&#45;18&#45;out&#45;&gt;nid&#45;23&#45;ampin&#45;24 -->
<g id="edge33" class="edge">
<title>nid&#45;18&#45;out&#45;&gt;nid&#45;23&#45;ampin&#45;24</title>
<path fill="none" stroke="#333333" d="M558.69,-664.31C641.28,-684.17 764.26,-713.75 832.18,-730.08"/>
<polygon fill="#333333" stroke="#333333" points="831.65,-733.56 842.2,-732.49 833.29,-726.75 831.65,-733.56"/>
</g>
<!-- nid&#45;19&#45;out -->
<g id="node19" class="node">
<title>nid&#45;19&#45;out</title>
<polygon fill="none" stroke="green" points="558.47,-565 388.05,-565 388.05,-501 558.47,-501 558.47,-565"/>
<text text-anchor="middle" x="473.26" y="-549.8" font-family="Times,serif" font-size="14.00">0x19</text>
<text text-anchor="middle" x="473.26" y="-535.8" font-family="Times,serif" font-size="14.00">[None] Speaker at Ext Rear</text>
<text text-anchor="middle" x="473.26" y="-521.8" font-family="Times,serif" font-size="14.00">Stereo</text>
<text text-anchor="middle" x="473.26" y="-507.8" font-family="Times,serif" font-size="14.00">IN Detect</text>
</g>
<!-- nid&#45;22&#45;ampin&#45;25 -->
<g id="node29" class="node">
<title>nid&#45;22&#45;ampin&#45;25</title>
<polygon fill="none" stroke="#c8c8c8" points="963.5,-364 842.35,-386 842.35,-342 963.5,-364"/>
<text text-anchor="middle" x="882.73" y="-359.8" font-family="Times,serif" font-size="14.00">1 (0x19)</text>
</g>
<!-- nid&#45;19&#45;out&#45;&gt;nid&#45;22&#45;ampin&#45;25 -->
<g id="edge23" class="edge">
<title>nid&#45;19&#45;out&#45;&gt;nid&#45;22&#45;ampin&#45;25</title>
<path fill="none" stroke="#333333" d="M542.68,-500.93C606.03,-471.75 703.15,-428.28 789.38,-395 803.09,-389.71 818.14,-384.44 832.03,-379.78"/>
<polygon fill="#333333" stroke="#333333" points="833.52,-382.98 841.91,-376.51 831.31,-376.33 833.52,-382.98"/>
</g>
<!-- nid&#45;23&#45;ampin&#45;25 -->
<g id="node34" class="node">
<title>nid&#45;23&#45;ampin&#45;25</title>
<polygon fill="none" stroke="#c8c8c8" points="963.5,-680 842.35,-702 842.35,-658 963.5,-680"/>
<text text-anchor="middle" x="882.73" y="-675.8" font-family="Times,serif" font-size="14.00">1 (0x19)</text>
</g>
<!-- nid&#45;19&#45;out&#45;&gt;nid&#45;23&#45;ampin&#45;25 -->
<g id="edge34" class="edge">
<title>nid&#45;19&#45;out&#45;&gt;nid&#45;23&#45;ampin&#45;25</title>
<path fill="none" stroke="#333333" d="M558.62,-564.8C621.94,-588.5 710.88,-621.38 789.38,-649 803.24,-653.88 818.34,-659.02 832.23,-663.68"/>
<polygon fill="#333333" stroke="#333333" points="831.5,-667.12 842.1,-666.97 833.72,-660.49 831.5,-667.12"/>
</g>
<!-- nid&#45;1a&#45;out -->
<g id="node20" class="node">
<title>nid&#45;1a&#45;out</title>
<polygon fill="none" stroke="green" points="558.47,-431 388.05,-431 388.05,-367 558.47,-367 558.47,-431"/>
<text text-anchor="middle" x="473.26" y="-415.8" font-family="Times,serif" font-size="14.00">0x1a</text>
<text text-anchor="middle" x="473.26" y="-401.8" font-family="Times,serif" font-size="14.00">[None] Speaker at Ext Rear</text>
<text text-anchor="middle" x="473.26" y="-387.8" font-family="Times,serif" font-size="14.00">Stereo</text>
<text text-anchor="middle" x="473.26" y="-373.8" font-family="Times,serif" font-size="14.00">IN Detect</text>
</g>
<!-- nid&#45;22&#45;ampin&#45;26 -->
<g id="node30" class="node">
<title>nid&#45;22&#45;ampin&#45;26</title>
<polygon fill="none" stroke="#c8c8c8" points="962.51,-302 842.84,-324 842.84,-280 962.51,-302"/>
<text text-anchor="middle" x="882.73" y="-297.8" font-family="Times,serif" font-size="14.00">2 (0x1a)</text>
</g>
<!-- nid&#45;1a&#45;out&#45;&gt;nid&#45;22&#45;ampin&#45;26 -->
<g id="edge24" class="edge">
<title>nid&#45;1a&#45;out&#45;&gt;nid&#45;22&#45;ampin&#45;26</title>
<path fill="none" stroke="#333333" d="M558.69,-378.9C641.5,-359.19 764.93,-329.81 832.73,-313.67"/>
<polygon fill="#333333" stroke="#333333" points="833.8,-317.01 842.72,-311.29 832.18,-310.2 833.8,-317.01"/>
</g>
<!-- nid&#45;23&#45;ampin&#45;26 -->
<g id="node35" class="node">
<title>nid&#45;23&#45;ampin&#45;26</title>
<polygon fill="none" stroke="#c8c8c8" points="962.51,-618 842.84,-640 842.84,-596 962.51,-618"/>
<text text-anchor="middle" x="882.73" y="-613.8" font-family="Times,serif" font-size="14.00">2 (0x1a)</text>
</g>
<!-- nid&#45;1a&#45;out&#45;&gt;nid&#45;23&#45;ampin&#45;26 -->
<g id="edge35" class="edge">
<title>nid&#45;1a&#45;out&#45;&gt;nid&#45;23&#45;ampin&#45;26</title>
<path fill="none" stroke="#333333" d="M522.71,-431.13C583.34,-470.46 691.17,-537.55 789.38,-584 803.18,-590.53 818.6,-596.64 832.83,-601.84"/>
<polygon fill="#333333" stroke="#333333" points="831.86,-605.21 842.46,-605.28 834.22,-598.62 831.86,-605.21"/>
</g>
<!-- nid&#45;1b&#45;ampout -->
<g id="node22" class="node">
<title>nid&#45;1b&#45;ampout</title>
<polygon fill="none" stroke="#c8c8c8" points="1253.35,-48 1212.85,-66 1212.85,-30 1253.35,-48"/>
</g>
<!-- nid&#45;1b&#45;in&#45;&gt;nid&#45;1b&#45;ampout -->
<g id="edge10" class="edge">
<title>nid&#45;1b&#45;in&#45;&gt;nid&#45;1b&#45;ampout</title>
<path fill="none" stroke="#c8c8c8" d="M968.18,-48C1048.52,-48 1163.45,-48 1207.36,-48"/>
<polygon fill="#c8c8c8" stroke="#c8c8c8" points="1207.6,-49.75 1212.6,-48 1207.6,-46.25 1207.6,-49.75"/>
</g>
<!-- nid&#45;1b&#45;out -->
<g id="node23" class="node">
<title>nid&#45;1b&#45;out</title>
<polygon fill="none" stroke="green" points="558.47,-869 388.05,-869 388.05,-805 558.47,-805 558.47,-869"/>
<text text-anchor="middle" x="473.26" y="-853.8" font-family="Times,serif" font-size="14.00">0x1b</text>
<text text-anchor="middle" x="473.26" y="-839.8" font-family="Times,serif" font-size="14.00">[None] Speaker at Ext Rear</text>
<text text-anchor="middle" x="473.26" y="-825.8" font-family="Times,serif" font-size="14.00">Stereo</text>
<text text-anchor="middle" x="473.26" y="-811.8" font-family="Times,serif" font-size="14.00">IN OUT EAPD Detect</text>
</g>
<!-- nid&#45;22&#45;ampin&#45;27 -->
<g id="node31" class="node">
<title>nid&#45;22&#45;ampin&#45;27</title>
<polygon fill="none" stroke="#c8c8c8" points="963.5,-550 842.35,-572 842.35,-528 963.5,-550"/>
<text text-anchor="middle" x="882.73" y="-545.8" font-family="Times,serif" font-size="14.00">3 (0x1b)</text>
</g>
<!-- nid&#45;1b&#45;out&#45;&gt;nid&#45;22&#45;ampin&#45;27 -->
<g id="edge25" class="edge">
<title>nid&#45;1b&#45;out&#45;&gt;nid&#45;22&#45;ampin&#45;27</title>
<path fill="none" stroke="#333333" d="M558.65,-804.87C569.34,-799.5 579.85,-793.53 589.38,-787 693.82,-715.35 682.94,-652.64 789.38,-584 802.44,-575.57 817.89,-568.84 832.37,-563.66"/>
<polygon fill="#333333" stroke="#333333" points="833.86,-566.85 842.21,-560.33 831.61,-560.23 833.86,-566.85"/>
</g>
<!-- nid&#45;23&#45;ampin&#45;27 -->
<g id="node36" class="node">
<title>nid&#45;23&#45;ampin&#45;27</title>
<polygon fill="none" stroke="#c8c8c8" points="963.5,-866 842.35,-888 842.35,-844 963.5,-866"/>
<text text-anchor="middle" x="882.73" y="-861.8" font-family="Times,serif" font-size="14.00">3 (0x1b)</text>
</g>
<!-- nid&#45;1b&#45;out&#45;&gt;nid&#45;23&#45;ampin&#45;27 -->
<g id="edge36" class="edge">
<title>nid&#45;1b&#45;out&#45;&gt;nid&#45;23&#45;ampin&#45;27</title>
<path fill="none" stroke="#333333" d="M558.69,-843.01C641.28,-848.89 764.26,-857.64 832.18,-862.47"/>
<polygon fill="#333333" stroke="#333333" points="831.97,-865.97 842.2,-863.19 832.47,-858.98 831.97,-865.97"/>
</g>
<!-- nid&#45;1b&#45;ampin -->
<g id="node24" class="node">
<title>nid&#45;1b&#45;ampin</title>
<polygon fill="none" stroke="#0000ff" points="109.57,-837 69.07,-855 69.07,-819 109.57,-837"/>
</g>
<!-- nid&#45;1b&#45;ampin&#45;&gt;nid&#45;1b&#45;out -->
<g id="edge11" class="edge">
<title>nid&#45;1b&#45;ampin&#45;&gt;nid&#45;1b&#45;out</title>
<path fill="none" stroke="#0000ff" d="M109.68,-837C164.59,-837 294.23,-837 382.64,-837"/>
<polygon fill="#0000ff" stroke="#0000ff" points="382.88,-838.75 387.88,-837 382.88,-835.25 382.88,-838.75"/>
</g>
<!-- nid&#45;1d&#45;out -->
<g id="node25" class="node">
<title>nid&#45;1d&#45;out</title>
<polygon fill="none" stroke="green" points="581.49,-775 365.03,-775 365.03,-711 581.49,-711 581.49,-775"/>
<text text-anchor="middle" x="473.26" y="-759.8" font-family="Times,serif" font-size="14.00">0x1d</text>
<text text-anchor="middle" x="473.26" y="-745.8" font-family="Times,serif" font-size="14.00">[None] Modem Handset at Ext N/A</text>
<text text-anchor="middle" x="473.26" y="-731.8" font-family="Times,serif" font-size="14.00">Mono</text>
<text text-anchor="middle" x="473.26" y="-717.8" font-family="Times,serif" font-size="14.00">IN</text>
</g>
<!-- nid&#45;22&#45;ampin&#45;29 -->
<g id="node32" class="node">
<title>nid&#45;22&#45;ampin&#45;29</title>
<polygon fill="none" stroke="#c8c8c8" points="963.5,-488 842.35,-510 842.35,-466 963.5,-488"/>
<text text-anchor="middle" x="882.73" y="-483.8" font-family="Times,serif" font-size="14.00">4 (0x1d)</text>
</g>
<!-- nid&#45;1d&#45;out&#45;&gt;nid&#45;22&#45;ampin&#45;29 -->
<g id="edge26" class="edge">
<title>nid&#45;1d&#45;out&#45;&gt;nid&#45;22&#45;ampin&#45;29</title>
<path fill="none" stroke="#333333" d="M548.55,-710.96C562.47,-704 576.63,-696.23 589.38,-688 687.12,-624.84 687.97,-576.09 789.38,-519 802.67,-511.52 818.06,-505.46 832.42,-500.75"/>
<polygon fill="#333333" stroke="#333333" points="833.66,-504.03 842.16,-497.71 831.57,-497.35 833.66,-504.03"/>
</g>
<!-- nid&#45;23&#45;ampin&#45;29 -->
<g id="node37" class="node">
<title>nid&#45;23&#45;ampin&#45;29</title>
<polygon fill="none" stroke="#c8c8c8" points="963.5,-804 842.35,-826 842.35,-782 963.5,-804"/>
<text text-anchor="middle" x="882.73" y="-799.8" font-family="Times,serif" font-size="14.00">4 (0x1d)</text>
</g>
<!-- nid&#45;1d&#45;out&#45;&gt;nid&#45;23&#45;ampin&#45;29 -->
<g id="edge37" class="edge">
<title>nid&#45;1d&#45;out&#45;&gt;nid&#45;23&#45;ampin&#45;29</title>
<path fill="none" stroke="#333333" d="M581.59,-759.07C662.66,-771.2 770.22,-787.31 832.12,-796.57"/>
<polygon fill="#333333" stroke="#333333" points="831.61,-800.04 842.02,-798.05 832.64,-793.11 831.61,-800.04"/>
</g>
<!-- nid&#45;22&#45;ampin&#45;24&#45;&gt;nid&#45;22 -->
<g id="edge17" class="edge">
<title>nid&#45;22&#45;ampin&#45;24&#45;&gt;nid&#45;22</title>
<path fill="none" stroke="#c8c8c8" d="M963.4,-426C1030.25,-426 1123.44,-426 1178.77,-426"/>
<polygon fill="#c8c8c8" stroke="#c8c8c8" points="1179,-427.75 1184,-426 1179,-424.25 1179,-427.75"/>
</g>
<!-- nid&#45;22&#45;ampin&#45;25&#45;&gt;nid&#45;22 -->
<g id="edge18" class="edge">
<title>nid&#45;22&#45;ampin&#45;25&#45;&gt;nid&#45;22</title>
<path fill="none" stroke="#c8c8c8" d="M923.93,-371.29C989.25,-383.15 1117.78,-406.48 1183.91,-418.48"/>
<polygon fill="#c8c8c8" stroke="#c8c8c8" points="1183.71,-420.22 1188.94,-419.39 1184.34,-416.78 1183.71,-420.22"/>
</g>
<!-- nid&#45;22&#45;ampin&#45;26&#45;&gt;nid&#45;22 -->
<g id="edge19" class="edge">
<title>nid&#45;22&#45;ampin&#45;26&#45;&gt;nid&#45;22</title>
<path fill="none" stroke="#c8c8c8" d="M911.77,-311.47C929.57,-317.53 953.06,-325.61 973.77,-333 1050.09,-360.24 1138.91,-393.42 1187.96,-411.88"/>
<polygon fill="#c8c8c8" stroke="#c8c8c8" points="1187.58,-413.6 1192.87,-413.73 1188.81,-410.33 1187.58,-413.6"/>
</g>
<!-- nid&#45;22&#45;ampin&#45;27&#45;&gt;nid&#45;22 -->
<g id="edge20" class="edge">
<title>nid&#45;22&#45;ampin&#45;27&#45;&gt;nid&#45;22</title>
<path fill="none" stroke="#c8c8c8" d="M911.77,-540.53C929.57,-534.47 953.06,-526.39 973.77,-519 1050.09,-491.76 1138.91,-458.58 1187.96,-440.12"/>
<polygon fill="#c8c8c8" stroke="#c8c8c8" points="1188.81,-441.67 1192.87,-438.27 1187.58,-438.4 1188.81,-441.67"/>
</g>
<!-- nid&#45;22&#45;ampin&#45;29&#45;&gt;nid&#45;22 -->
<g id="edge21" class="edge">
<title>nid&#45;22&#45;ampin&#45;29&#45;&gt;nid&#45;22</title>
<path fill="none" stroke="#c8c8c8" d="M923.93,-480.71C989.25,-468.85 1117.78,-445.52 1183.91,-433.52"/>
<polygon fill="#c8c8c8" stroke="#c8c8c8" points="1184.34,-435.22 1188.94,-432.61 1183.71,-431.78 1184.34,-435.22"/>
</g>
<!-- nid&#45;23&#45;ampin&#45;24&#45;&gt;nid&#45;23 -->
<g id="edge27" class="edge">
<title>nid&#45;23&#45;ampin&#45;24&#45;&gt;nid&#45;23</title>
<path fill="none" stroke="#c8c8c8" d="M937.11,-746.84C1004.46,-752.96 1119.03,-763.35 1181.52,-769.02"/>
<polygon fill="#c8c8c8" stroke="#c8c8c8" points="1181.53,-770.78 1186.66,-769.49 1181.84,-767.29 1181.53,-770.78"/>
</g>
<!-- nid&#45;23&#45;ampin&#45;25&#45;&gt;nid&#45;23 -->
<g id="edge28" class="edge">
<title>nid&#45;23&#45;ampin&#45;25&#45;&gt;nid&#45;23</title>
<path fill="none" stroke="#c8c8c8" d="M915.87,-688.75C978.6,-705.83 1117.17,-743.55 1185.57,-762.17"/>
<polygon fill="#c8c8c8" stroke="#c8c8c8" points="1185.49,-763.96 1190.77,-763.59 1186.41,-760.58 1185.49,-763.96"/>
</g>
<!-- nid&#45;23&#45;ampin&#45;26&#45;&gt;nid&#45;23 -->
<g id="edge29" class="edge">
<title>nid&#45;23&#45;ampin&#45;26&#45;&gt;nid&#45;23</title>
<path fill="none" stroke="#c8c8c8" d="M913.28,-627.13C931.02,-632.87 953.93,-640.73 973.77,-649 1053.46,-682.2 1143.43,-728.88 1191.22,-754.45"/>
<polygon fill="#c8c8c8" stroke="#c8c8c8" points="1190.48,-756.04 1195.72,-756.86 1192.14,-752.96 1190.48,-756.04"/>
</g>
<!-- nid&#45;23&#45;ampin&#45;27&#45;&gt;nid&#45;23 -->
<g id="edge30" class="edge">
<title>nid&#45;23&#45;ampin&#45;27&#45;&gt;nid&#45;23</title>
<path fill="none" stroke="#c8c8c8" d="M915.87,-857.25C978.6,-840.17 1117.17,-802.45 1185.57,-783.83"/>
<polygon fill="#c8c8c8" stroke="#c8c8c8" points="1186.41,-785.42 1190.77,-782.41 1185.49,-782.04 1186.41,-785.42"/>
</g>
<!-- nid&#45;23&#45;ampin&#45;29&#45;&gt;nid&#45;23 -->
<g id="edge31" class="edge">
<title>nid&#45;23&#45;ampin&#45;29&#45;&gt;nid&#45;23</title>
<path fill="none" stroke="#c8c8c8" d="M937.11,-799.16C1004.46,-793.04 1119.03,-782.65 1181.52,-776.98"/>
<polygon fill="#c8c8c8" stroke="#c8c8c8" points="1181.84,-778.71 1186.66,-776.51 1181.53,-775.22 1181.84,-778.71"/>
</g>
<!-- nid&#45;23&#45;ampin&#45;18&#45;&gt;nid&#45;23 -->
<g id="edge32" class="edge">
<title>nid&#45;23&#45;ampin&#45;18&#45;&gt;nid&#45;23</title>
<path fill="none" stroke="#c8c8c8" d="M913.28,-918.87C931.02,-913.13 953.93,-905.27 973.77,-897 1053.46,-863.8 1143.43,-817.12 1191.22,-791.55"/>
<polygon fill="#c8c8c8" stroke="#c8c8c8" points="1192.14,-793.04 1195.72,-789.14 1190.48,-789.96 1192.14,-793.04"/>
</g>
</g>
</svg>
